<svg xmlns="http://www.w3.org/2000/svg" viewBox="0 0 60 60"><defs><style>.white{fill:#fff;fill-rule:evenodd;}</style></defs><path class="white" d="M51.9,23.618a2.09,2.09,0,1,0-3.818,1.7c.01.022.02.043.031.065A19.987,19.987,0,1,1,28.727,13.857v8.507L46.545,12.183,28.727,2V9.669A24.244,24.244,0,1,0,51.9,23.618Z"></path><path class="white" d="M25.651,41.331V26.677H23.246a2.437,2.437,0,0,1-.111.586,2.537,2.537,0,0,1-.565,1.051,2.684,2.684,0,0,1-1.411.768,12.744,12.744,0,0,1-1.9.182v1.961H22.7V41.331Z"></path><path class="white" d="M35.03,41.7a4.147,4.147,0,0,0,3.926-1.961,11.328,11.328,0,0,0,1.127-5.589,11.4,11.4,0,0,0-1.127-5.6,4.14,4.14,0,0,0-3.926-1.97A4.14,4.14,0,0,0,31.1,28.55a11.4,11.4,0,0,0-1.127,5.6A11.328,11.328,0,0,0,31.1,39.734,4.145,4.145,0,0,0,35.03,41.7Zm-1.7-11.471a1.655,1.655,0,0,1,1.7-1.273,1.631,1.631,0,0,1,1.683,1.273,14.145,14.145,0,0,1,.4,3.921,14.333,14.333,0,0,1-.4,3.866A1.646,1.646,0,0,1,35.03,39.35a1.668,1.668,0,0,1-1.7-1.339,13.834,13.834,0,0,1-.414-3.866,13.635,13.635,0,0,1,.416-3.921Z"></path></svg>
