<svg xmlns="http://www.w3.org/2000/svg" viewBox="0 0 60 60"><defs><style>.white{fill:#fff;fill-rule:evenodd;}</style></defs><path class="white" d="M31.273,9.669V2L13.455,12.183,31.273,22.364V13.857A20.055,20.055,0,1,1,11.885,25.386c.011-.022.021-.043.031-.065a2.09,2.09,0,0,0-3.818-1.7A24.168,24.168,0,1,0,31.273,9.669Z"></path><path class="white" d="M25.651,41.331V26.677H23.246a2.425,2.425,0,0,1-.111.586,2.532,2.532,0,0,1-.565,1.051,2.685,2.685,0,0,1-1.411.768,12.76,12.76,0,0,1-1.9.182v1.961H22.7V41.331Z"></path><path class="white" d="M35.03,41.7a4.146,4.146,0,0,0,3.926-1.961,11.334,11.334,0,0,0,1.127-5.589,11.4,11.4,0,0,0-1.127-5.6,4.139,4.139,0,0,0-3.926-1.97,4.139,4.139,0,0,0-3.926,1.97,11.4,11.4,0,0,0-1.127,5.6A11.334,11.334,0,0,0,31.1,39.734,4.146,4.146,0,0,0,35.03,41.7Zm-1.7-11.471a1.655,1.655,0,0,1,1.7-1.273,1.631,1.631,0,0,1,1.683,1.273,14.149,14.149,0,0,1,.4,3.921,14.315,14.315,0,0,1-.4,3.866A1.646,1.646,0,0,1,35.03,39.35a1.668,1.668,0,0,1-1.7-1.339,13.821,13.821,0,0,1-.414-3.866A13.66,13.66,0,0,1,33.332,30.224Z"></path></svg>